<svg xmlns="http://www.w3.org/2000/svg" width="79.228" height="77.282" viewBox="0 0 79.228 77.282">
  <g id="purchase_order" data-name="purchase order" transform="translate(-5.548 -6.448)">
    <path id="Path_1146" data-name="Path 1146" d="M75.276,15.311a1.5,1.5,0,0,1,1.02.422l1.333,1.341a1.739,1.739,0,0,1-.172,2.446L65.7,31.294a1.668,1.668,0,0,1-2.266,0l-5.437-5.447a1.745,1.745,0,0,1-.178-2.446l1.339-1.335a1.724,1.724,0,0,1,2.438.177l2.973,2.974,9.287-9.307A1.985,1.985,0,0,1,75.276,15.311ZM67.724,6.448A17.079,17.079,0,1,0,84.776,23.527,17.066,17.066,0,0,0,67.724,6.448Z"/>
    <path id="Path_1147" data-name="Path 1147" d="M9.129,6.845c-4.265.12-4.948,6.562-.812,7.689l5.391,1.905,6.338,33.072a34.683,34.683,0,0,0,3.771,10.621C26.4,64.67,30.88,68.02,36.4,68.02H63.853c4.953.093,4.953-7.836,0-7.742H36.4c-3.9-.5-5.525-2.473-6.957-5.357H65.676c3.324,0,5.037-2.983,6-6.365.895-3.145.609-3.155-1.537-2.858a21.529,21.529,0,0,1-2.406.135A22.374,22.374,0,0,1,45.457,23.527a14.45,14.45,0,0,1,.324-3.761c.776-2.9-.746-3.464-3.491-3.464l-20.776.016-1.4-4.277a3.788,3.788,0,0,0-2.556-2.6Z"/>
    <path id="Path_1148" data-name="Path 1148" d="M61.681,71.969a5.881,5.881,0,1,0,5.876,5.883A5.874,5.874,0,0,0,61.681,71.969Zm-23.4,0a5.881,5.881,0,1,0,5.874,5.883A5.878,5.878,0,0,0,38.276,71.969Z"/>
  </g>
</svg>
